<?xml version="1.0" encoding="UTF-8" standalone="no"?>
<!-- Created with Inkscape (http://www.inkscape.org/) -->

<svg
   width="25.809288mm"
   height="27.07576mm"
   viewBox="0 0 25.809288 27.07576"
   version="1.1"
   id="svg5"
   xml:space="preserve"
   xmlns:inkscape="http://www.inkscape.org/namespaces/inkscape"
   xmlns:sodipodi="http://sodipodi.sourceforge.net/DTD/sodipodi-0.dtd"
   xmlns="http://www.w3.org/2000/svg"
   xmlns:svg="http://www.w3.org/2000/svg"><sodipodi:namedview
     id="namedview7"
     pagecolor="#ffffff"
     bordercolor="#666666"
     borderopacity="1.0"
     inkscape:showpageshadow="2"
     inkscape:pageopacity="0.0"
     inkscape:pagecheckerboard="0"
     inkscape:deskcolor="#d1d1d1"
     inkscape:document-units="mm"
     showgrid="false" /><defs
     id="defs2" /><g
     inkscape:label="Layer 1"
     inkscape:groupmode="layer"
     id="layer1"
     transform="translate(-104.67156,-133.85743)"><path
       id="path4465"
       style="fill:#ffffff;stroke:none;stroke-width:0.268754;stroke-dasharray:none;stroke-opacity:1;stop-color:#000000"
       d="m 104.67158,136.13475 c -5.2e-4,0.10956 0.0128,0.21673 0.0413,0.31781 0.0908,0.3216 0.34347,0.61992 0.68833,0.81287 0.18758,0.10494 0.40606,0.18856 0.48576,0.18656 l 0.1447,-0.004 0.0987,0.46561 c 0.0543,0.2562 0.28534,1.25359 0.51315,2.2164 0.22784,0.9628 0.711,3.01672 1.07383,4.56458 0.3629,1.54782 0.67058,2.85255 0.68368,2.89905 0.0163,0.0578 -0.0633,0.14724 -0.25321,0.28422 -0.34746,0.25065 -0.61273,0.67607 -0.69143,1.10949 -0.0481,0.26426 -0.0395,0.38672 0.0491,0.6966 0.13198,0.46199 0.38493,0.78007 0.79995,1.00665 0.43293,0.23636 0.72227,0.2687 1.19786,0.13436 0.22058,-0.0623 0.45305,-0.1399 0.51625,-0.1726 0.10819,-0.0561 0.29092,0.1141 3.13779,2.92179 l 3.02255,2.98121 -0.0925,0.22376 c -0.1061,0.25621 -0.13776,0.67222 -0.0698,0.91312 0.0989,0.35009 0.34135,0.64583 0.68885,0.84026 0.64676,0.36184 1.38219,0.22266 1.80609,-0.3421 l 0.12299,-0.16381 1.55753,0.44597 c 1.35924,0.38966 1.55941,0.46148 1.57561,0.56482 0.10283,0.65629 0.19393,0.9453 0.37621,1.19218 0.52816,0.71532 1.56301,0.91904 2.30735,0.45423 0.51858,-0.32384 0.80386,-0.82331 0.84026,-1.47071 l 0.0196,-0.34881 2.67839,-1.14412 c 1.51123,-0.64542 2.18299,-0.92865 2.49029,-1.0356 v -1.46812 c -0.047,0.13084 -0.0762,0.26654 -0.0816,0.40152 -0.006,0.16329 -0.0145,0.30203 -0.0165,0.30903 -0.004,0.0113 -5.30019,2.27118 -5.36609,2.28978 -0.0187,0.005 -0.0347,-0.0263 -0.0377,-0.0698 -0.005,-0.0834 3.45133,-4.59399 5.50199,-7.21765 v -1.17047 l -2.5709,3.3445 c -1.89631,2.46677 -3.47965,4.49415 -3.51865,4.50515 -0.22285,0.063 -0.20749,-0.10501 0.35243,-3.91553 0.30809,-2.09668 0.57795,-3.84448 0.59945,-3.88348 0.0286,-0.0517 0.81187,-0.26473 2.90577,-0.79065 0.91565,-0.22999 1.70108,-0.42359 2.2319,-0.55139 v -0.74207 c -1.28131,0.33268 -4.98587,1.25575 -5.009,1.24282 -0.0186,-0.0104 0.28978,-2.19469 0.4036,-2.85926 l 0.032,-0.1881 0.63613,-0.17983 c 0.63256,-0.17869 0.63733,-0.18081 0.97979,-0.48163 l 0.34468,-0.30231 0.14004,0.0842 c 0.077,0.0464 0.78272,0.49133 1.56838,0.98908 0.34605,0.21924 0.65409,0.42075 0.90434,0.58756 v -0.83302 c -0.24458,-0.15551 -0.26415,-0.16855 -0.58084,-0.36949 -0.82792,-0.52534 -1.54672,-0.98277 -1.59732,-1.01647 -0.0795,-0.053 -0.0814,-0.11425 -0.0145,-0.45579 0.14552,-0.7427 -0.0261,-1.42035 -0.50126,-1.97921 l -0.20877,-0.24546 1.29139,-2.3089 1.29139,-2.30839 0.31988,0.0553 v -3.29903 h -1.13791 c -0.0578,0.13424 -0.42112,0.73648 -0.45424,0.74776 -0.12513,0.038 -2.33874,-0.18006 -2.33474,-0.22996 9.6e-4,-0.0114 0.005,-0.37551 0.008,-0.5178 h -0.71417 c -0.017,0.34162 -0.0394,0.49914 -0.0749,0.50281 -0.0425,0.004 -1.13672,-0.0784 -2.43189,-0.18396 -2.0261,-0.16521 -2.3572,-0.20604 -2.3704,-0.29094 -4.9e-4,-0.003 -0.004,-0.0236 -0.005,-0.0279 h -5.7614 c -0.0112,0.18265 -0.0441,0.29474 -0.0925,0.30644 -0.16668,0.044 -2.79679,0.47776 -2.81379,0.46406 -0.003,-0.002 -0.0753,-0.41819 -0.13694,-0.7705 h -0.7245 c 0.0817,0.49713 0.14695,0.90019 0.14521,0.90279 -0.005,0.006 -0.93862,0.16885 -2.07533,0.3607 -1.13671,0.19186 -2.09458,0.35684 -2.12958,0.36484 -0.0347,0.009 -0.075,-0.0255 -0.0894,-0.0765 -0.0144,-0.0511 -0.10773,-0.17783 -0.20723,-0.28164 l -0.18035,-0.18862 0.44959,-1.08159 h -0.7736 c -0.27686,0.629 -0.38293,0.81588 -0.43666,0.81597 -0.32059,5.7e-4 -0.55828,0.0658 -0.80874,0.22221 -0.39488,0.2466 -0.65608,0.76446 -0.65836,1.2392 z m 2.0743,1.25677 c 7e-4,-0.0739 0.0328,-0.10951 0.11058,-0.17001 l 0.13746,-0.10697 1.7539,1.24333 c 0.96454,0.68395 1.79607,1.27822 1.84847,1.31982 0.083,0.066 0.0876,0.11013 0.0351,0.3452 -0.18635,0.83503 0.081,1.68753 0.68988,2.20038 0.11697,0.0985 0.21724,0.20238 0.22324,0.23048 0.0101,0.049 -1.93841,4.82542 -2.04949,5.02398 -0.0357,0.0644 -0.10147,0.0978 -0.19637,0.10077 -0.13542,0.004 -0.14729,-0.011 -0.23409,-0.31833 -0.0729,-0.25798 -2.07257,-8.71676 -2.28875,-9.68106 -0.0191,-0.0854 -0.0304,-0.14326 -0.03,-0.18759 z m 0.63717,-0.87901 c -0.003,-0.0148 0.0207,-0.0947 0.0537,-0.17725 l 0.0599,-0.15038 1.61799,-0.27802 c 0.88976,-0.15281 1.83282,-0.31275 2.096,-0.35605 l 0.47852,-0.0786 0.0522,0.20722 c 0.0767,0.30468 0.46043,2.65318 0.43873,2.68408 -0.0102,0.0144 -0.15795,0.0936 -0.32815,0.17621 -0.1702,0.0825 -0.42087,0.25167 -0.55759,0.37518 l -0.24856,0.22427 -1.82831,-1.30018 c -1.00545,-0.71506 -1.83051,-1.31173 -1.83451,-1.32653 z m 2.72024,11.35331 1.02785,-2.52129 c 0.5651,-1.38697 1.0365,-2.54239 1.048,-2.56729 0.0115,-0.0252 0.18421,-0.0264 0.38343,-0.004 0.29757,0.0341 0.44441,0.0185 0.82269,-0.0853 l 0.45992,-0.12661 1.23714,1.86965 v 0.001 c 0.68023,1.02852 1.24308,1.89313 1.25108,1.92133 0.009,0.0325 -0.91491,0.36959 -2.51561,0.91777 -1.39124,0.47647 -2.70067,0.92849 -2.9099,1.00459 -0.31774,0.1157 -0.38382,0.12626 -0.40152,0.0636 -0.0117,-0.0414 -0.10694,-0.16485 -0.21187,-0.2744 z m 0.49248,2.12338 c -0.0214,-0.17599 0.31244,-0.13544 3.50366,0.33228 l 3.41478,0.50075 0.14418,0.50746 c 0.16111,0.56673 0.33604,0.82886 0.76946,1.15394 v -5.2e-4 c 0.12441,0.0933 0.23119,0.18802 0.23719,0.21032 0.006,0.0223 -0.22443,0.75512 -0.51314,1.62833 l -0.52504,1.5875 -0.25941,-0.005 c -0.14274,-0.003 -0.35821,0.03 -0.47852,0.0723 l -0.2186,0.0775 -3.0241,-2.98225 c -1.66335,-1.64008 -3.03219,-3.01007 -3.04219,-3.04477 -0.004,-0.0136 -0.007,-0.0265 -0.008,-0.0383 z m 0.19895,-0.87591 c -0.0172,-0.01 0.0408,-0.0501 0.12919,-0.0904 0.12759,-0.0581 5.68792,-1.97275 5.82446,-2.00505 0.0197,-0.005 0.3387,0.4465 0.70848,1.00252 0.3698,0.55603 0.68933,1.03374 0.71003,1.06144 0.0208,0.0277 -0.0137,0.0996 -0.076,0.15968 -0.0624,0.0601 -0.20148,0.28353 -0.30903,0.49712 l -0.19533,0.38861 -3.38016,-0.49816 c -1.85917,-0.27394 -3.39438,-0.50573 -3.41168,-0.51573 z m 1.64331,-13.74283 c 0.0171,-0.0305 2.51005,-0.47911 2.74247,-0.49351 0.0913,-0.006 0.13791,0.0486 0.25528,0.29817 0.079,0.16791 0.24418,0.43229 0.36691,0.58756 0.12268,0.15531 0.23855,0.30271 0.25735,0.32711 0.0254,0.0329 -1.35549,1.77104 -1.99213,2.50735 -0.041,0.0474 -0.1337,0.0307 -0.3266,-0.0584 -0.14812,-0.0684 -0.39086,-0.14426 -0.53898,-0.16846 -0.18858,-0.0309 -0.27777,-0.0741 -0.29817,-0.14418 -0.0535,-0.18403 -0.48433,-2.82324 -0.46613,-2.85564 z m 1.96061,6.76444 0.10335,-0.13436 c 0.0569,-0.0738 0.17167,-0.25849 0.25477,-0.41031 l 0.15089,-0.27595 1.82211,0.41186 c 1.29043,0.2914 1.8276,0.43596 1.8402,0.49506 0.01,0.046 0.0831,0.80803 0.1633,1.69344 l 0.14572,1.60972 -0.48885,0.17208 c -0.26895,0.0947 -0.67845,0.23375 -0.91003,0.30955 l -0.42116,0.13745 -1.33015,-2.00452 z m 0.17828,-2.9378 c -0.0241,-0.0375 0.36646,-0.56026 1.01389,-1.35806 l 1.05265,-1.29708 0.30799,0.12816 c 0.27422,0.11387 0.73147,0.21898 1.00149,0.23048 0.0527,0.002 0.10479,0.0449 0.11679,0.0946 0.0286,0.12374 0.41829,4.35857 0.40359,4.38577 -0.0122,0.0224 -3.31059,-0.71354 -3.39049,-0.75654 -0.0247,-0.0132 -0.0618,-0.18156 -0.0822,-0.37414 -0.0349,-0.32909 -0.16218,-0.64539 -0.42375,-1.05316 z m 2.93161,7.6109 c 0.0168,-0.0396 0.17305,-0.10874 0.49712,-0.22066 0.29348,-0.10129 0.62693,-0.22188 0.74053,-0.26768 0.11362,-0.0458 0.20839,-0.0662 0.21239,-0.0455 0.0158,0.0979 0.20078,2.25491 0.19378,2.26291 -0.004,0.005 -0.094,0.049 -0.19998,0.0971 l -0.19276,0.0879 -0.60616,-0.92346 c -0.3335,-0.50793 -0.62339,-0.94673 -0.64389,-0.97513 -0.003,-0.004 -0.003,-0.01 -10e-4,-0.0155 z m 0.76842,9.36739 0.50282,-1.53892 c 0.2764,-0.84645 0.52222,-1.57783 0.54622,-1.62523 0.0368,-0.0727 0.0852,-0.085 0.30902,-0.076 0.14603,0.006 0.3823,-0.003 0.52503,-0.0196 l 0.25942,-0.03 1.04025,2.38487 c 0.57212,1.31168 1.0473,2.40964 1.0573,2.43964 0.009,0.0301 -0.0617,0.12106 -0.15813,0.20206 -0.0964,0.081 -0.19209,0.18477 -0.21239,0.23047 -0.0203,0.0459 -0.0637,0.0913 -0.0966,0.10025 -0.0329,0.009 -0.75968,-0.1832 -1.61489,-0.42788 l -1.55494,-0.44493 -0.11782,-0.39533 c -0.0913,-0.30654 -0.15882,-0.44069 -0.30128,-0.59737 z m 0.48938,-19.33474 0.33745,-0.13797 c 0.18555,-0.0761 0.39047,-0.15844 0.45527,-0.18294 0.11033,-0.0415 0.25677,0.12121 2.30477,2.55902 1.20277,1.43172 2.21972,2.64261 2.26032,2.69131 0.0621,0.0745 0.0377,0.14627 -0.15451,0.45527 l -0.22789,0.36742 -2.22519,-0.50281 c -1.22361,-0.27636 -2.24365,-0.51447 -2.26705,-0.52917 -0.0233,-0.0147 -0.1413,-1.08286 -0.26251,-2.3735 z m 0.56431,5.62498 c -0.003,-0.0802 -0.003,-0.12638 0.002,-0.12764 0.0263,-0.007 0.99303,0.19945 2.1487,0.45992 1.15568,0.26047 2.10495,0.4977 2.10995,0.5271 0.0137,0.0864 0.0328,0.53241 0.0238,0.55501 -0.009,0.0212 -4.02893,1.41755 -4.04213,1.40405 -0.0348,-0.0346 -0.22001,-2.25673 -0.24184,-2.81844 z m 0.34054,3.70004 c -8.4e-4,-0.0646 0.002,-0.10493 0.007,-0.11473 0.0252,-0.0441 0.66147,-0.28201 1.6707,-0.62425 0.89661,-0.30405 1.82333,-0.6217 2.0593,-0.7059 0.39196,-0.1399 0.434,-0.14556 0.4868,-0.0667 0.22351,0.33401 0.63457,0.7203 0.95033,0.89297 0.19507,0.10667 0.3577,0.20552 0.3607,0.21962 0.003,0.0141 -0.10526,0.77552 -0.24185,1.69241 l -0.24856,1.66708 -0.2682,0.094 c -0.1475,0.0517 -0.79489,0.22589 -1.43867,0.38706 l -1.17048,0.293 -0.094,-0.20825 c -0.23849,-0.52814 -0.90996,-1.03309 -1.53634,-1.15497 -0.20342,-0.0396 -0.3493,-0.0967 -0.3483,-0.13643 10e-4,-0.0376 -0.0484,-0.56577 -0.11007,-1.17357 -0.0461,-0.45585 -0.076,-0.86755 -0.0786,-1.06143 z m 0.51987,-10.16011 0.10335,-0.13642 c 0.21837,-0.28948 0.43843,-0.69283 0.50333,-0.92191 0.0373,-0.13151 0.0902,-0.24618 0.11834,-0.25218 0.0278,-0.007 1.13496,0.0762 2.46031,0.18448 1.60374,0.13097 2.41998,0.2205 2.44068,0.2682 0.0172,0.0394 0.0121,1.39256 -0.0119,3.00705 l -0.0439,2.93523 -0.52141,0.14727 -0.52194,0.1478 -2.26342,-2.68976 z m 0.89193,16.57367 c 0.008,-0.0573 0.0567,-0.11875 0.1571,-0.20309 0.42111,-0.35352 0.67362,-0.84717 0.74052,-1.44901 l 0.0351,-0.31729 0.82321,-0.22221 c 0.4527,-0.12237 1.03192,-0.26573 1.28726,-0.31833 l 0.46405,-0.0956 -0.55087,3.71709 -0.55087,3.71708 -0.15348,0.0274 -0.15348,0.0274 -1.03094,-2.3611 c -0.56706,-1.29867 -1.04468,-2.4087 -1.06298,-2.466 -0.006,-0.0189 -0.007,-0.0372 -0.005,-0.0563 z m 5.37745,-11.43755 0.0419,-2.96881 c 0.023,-1.63274 0.0498,-2.98337 0.0599,-3.00137 0.0142,-0.0253 1.19996,0.0535 2.20916,0.14677 0.0867,0.008 0.1092,0.0462 0.1354,0.23357 0.0173,0.12323 0.0917,0.34723 0.16588,0.49765 0.0742,0.1504 0.21737,0.36273 0.31781,0.4718 l 0.18242,0.19844 -1.2883,2.30219 -1.28829,2.30166 -0.26769,-0.0909 z" /></g></svg>
