<?xml version="1.0" encoding="UTF-8" standalone="no"?>
<!-- Created with Inkscape (http://www.inkscape.org/) -->

<svg
   width="24.512711mm"
   height="25.071022mm"
   viewBox="0 0 24.512711 25.071022"
   version="1.1"
   id="svg5"
   xml:space="preserve"
   xmlns:inkscape="http://www.inkscape.org/namespaces/inkscape"
   xmlns:sodipodi="http://sodipodi.sourceforge.net/DTD/sodipodi-0.dtd"
   xmlns="http://www.w3.org/2000/svg"
   xmlns:svg="http://www.w3.org/2000/svg"><sodipodi:namedview
     id="namedview7"
     pagecolor="#ffffff"
     bordercolor="#666666"
     borderopacity="1.0"
     inkscape:showpageshadow="2"
     inkscape:pageopacity="0.0"
     inkscape:pagecheckerboard="0"
     inkscape:deskcolor="#d1d1d1"
     inkscape:document-units="mm"
     showgrid="false" /><defs
     id="defs2" /><g
     inkscape:label="Layer 1"
     inkscape:groupmode="layer"
     id="layer1"
     transform="translate(-105.77457,-108.32322)"><path
       id="path6045"
       style="opacity:1;fill:#ffffff;stroke:none;stroke-width:0.198975;stroke-dasharray:none;stroke-opacity:1;stop-color:#000000"
       d="m 130.28728,133.39421 v -7.02386 c -0.77382,0.62263 -1.92266,1.46731 -3.8809,2.88303 -3.58288,2.59024 -4.11713,3.02521 -5.05189,4.11086 -0.008,0.01 -0.0164,0.02 -0.0248,0.03 z m -10.34872,0 c 0.38141,-0.5967 0.90619,-1.17088 1.82159,-2.0221 0.5644,-0.52483 1.14171,-0.9611 4.09329,-3.09541 1.71043,-1.23677 3.29782,-2.40375 3.52795,-2.59261 0.26779,-0.21977 0.6046,-0.5184 0.90589,-0.79685 v -8.45013 c -0.54066,-0.87983 -1.46485,-2.22808 -3.17655,-4.63073 -1.70996,-2.40158 -1.75077,-2.45411 -1.98334,-2.64273 -0.46708,-0.37781 -1.01016,-0.61027 -1.73633,-0.74362 -0.88621,-0.16275 -2.10811,-0.11717 -3.04012,0.11317 -0.11582,0.0286 -0.26595,0.0621 -0.33487,0.0749 -0.24303,0.0452 -1.14939,0.32374 -1.64021,0.50384 -1.13931,0.41806 -2.46297,1.08631 -3.55172,1.79369 l 0.001,5.2e-4 c -0.30447,0.19769 -0.60278,0.38756 -0.66249,0.42271 -0.23784,0.13962 -1.63825,1.25285 -2.12701,1.69034 -1.54743,1.38491 -2.88651,3.1157 -3.53828,4.57491 -0.32824,0.73484 -0.44888,1.12452 -0.55656,1.80041 -0.14431,0.90588 -0.0425,1.62858 0.31936,2.27273 0.0954,0.17013 0.70295,1.05643 1.34979,1.96939 l 1.17616,1.65985 4.32376,-3.05408 4.32325,-3.05408 0.3266,0.44235 0.32659,0.44184 -6.4425,4.56923 c -3.90881,2.772 -6.54709,4.66015 -6.70863,4.80229 -0.55458,0.48818 -0.88962,1.13704 -1.05317,2.03967 -0.10049,0.55458 -0.11448,0.72949 -0.1049,1.28777 0.004,0.2014 0.0169,0.40968 0.0372,0.6227 z m -7.64604,-12.27883 c -0.13192,0.004 -0.26644,-0.006 -0.40256,-0.0295 -1.06578,-0.18503 -1.7806,-1.21631 -1.59577,-2.30218 0.0614,-0.36045 0.26258,-0.75762 0.51624,-1.01855 0.32332,-0.33265 0.64519,-0.50007 1.11467,-0.58239 1.15535,-0.20241 2.27912,0.7229 2.30631,1.89911 0.0163,0.70661 -0.33237,1.32005 -0.86247,1.68362 -0.30957,0.2116 -0.68069,0.33923 -1.07642,0.34985 z m 17.99476,-6.73448 v -1.5384 l -0.70021,0.49351 0.0496,0.0713 c 0.1473,0.21375 0.39364,0.5845 0.6506,0.97358 z"
       inkscape:export-filename="img_1.svg"
       inkscape:export-xdpi="100"
       inkscape:export-ydpi="100" /></g></svg>
