<?xml version="1.0" encoding="UTF-8" standalone="no"?>
<!-- Created with Inkscape (http://www.inkscape.org/) -->

<svg
   width="25.230194mm"
   height="24.909935mm"
   viewBox="0 0 25.230194 24.909935"
   version="1.1"
   id="svg5"
   xml:space="preserve"
   xmlns:inkscape="http://www.inkscape.org/namespaces/inkscape"
   xmlns:sodipodi="http://sodipodi.sourceforge.net/DTD/sodipodi-0.dtd"
   xmlns="http://www.w3.org/2000/svg"
   xmlns:svg="http://www.w3.org/2000/svg"><sodipodi:namedview
     id="namedview7"
     pagecolor="#ffffff"
     bordercolor="#666666"
     borderopacity="1.0"
     inkscape:showpageshadow="2"
     inkscape:pageopacity="0.0"
     inkscape:pagecheckerboard="0"
     inkscape:deskcolor="#d1d1d1"
     inkscape:document-units="mm"
     showgrid="false" /><defs
     id="defs2" /><g
     inkscape:label="Layer 1"
     inkscape:groupmode="layer"
     id="layer1"
     transform="translate(-130.67984,-108.5252)"><path
       id="path1477"
       style="fill:#ffffff;fill-opacity:1;stroke:none;stroke-width:0.51397;stroke-dasharray:none;stroke-opacity:1;stop-color:#000000"
       d="m 130.70435,108.5252 v 7.74394 c -0.008,0.008 -0.0157,0.0152 -0.0245,0.0236 v 3.44 c 0.008,-0.008 0.0158,-0.0152 0.0245,-0.0236 v 1.25763 1.37505 c -0.008,0.008 -0.0165,0.0159 -0.0245,0.0236 v 3.42847 c 0.007,-0.007 0.0171,-0.0165 0.0245,-0.0236 v 2.64055 c -0.006,0.006 -0.0187,0.0181 -0.0245,0.0236 v 3.42008 c 0.004,-0.003 0.0208,-0.0201 0.0245,-0.0236 v 1.57741 h 1.25108 l 0.0265,0.0268 h 3.34754 c 0.005,-0.005 0.0224,-0.0217 0.0276,-0.0268 h 2.73103 c -0.006,0.006 -0.0211,0.0204 -0.0277,0.0268 h 3.55145 c 0.008,-0.007 0.0198,-0.0192 0.0276,-0.0268 h 1.66739 1.05673 c -0.008,0.008 -0.0191,0.0185 -0.0276,0.0268 h 3.55198 c 0.009,-0.009 0.0184,-0.0179 0.0276,-0.0268 h 7.99449 l -0.0409,-1.68488 c -0.0522,-2.15325 -0.21532,-3.42355 -0.67865,-5.29472 -0.9883,-3.99138 -3.03569,-7.66154 -5.9474,-10.6597 -3.51328,-3.61757 -8.24194,-6.07975 -13.23616,-6.89205 -1.38218,-0.22484 -1.95217,-0.27361 -3.6619,-0.31348 z m 2.65138,2.68407 0.57987,0.045 c 0.57704,0.045 1.15563,0.11795 1.73377,0.21546 -0.74931,0.72411 -1.51263,1.46201 -2.31364,2.23637 z m 5.16202,0.95252 c 0.66052,0.2101 1.31491,0.45338 1.95999,0.72921 l -5.08928,4.91832 c -0.79177,0.76509 -1.36789,1.32348 -2.03273,1.96691 v -2.62639 c 0.0256,-0.0247 0.0409,-0.0394 0.0669,-0.0645 z m 4.30974,1.9061 c 0.55949,0.32447 1.10332,0.6737 1.62917,1.04636 l -5.35691,5.17625 c -2.50318,2.4189 -4.04302,3.90972 -5.74402,5.55579 v -2.63426 c 3.27673,-3.16119 6.60785,-6.37704 9.47176,-9.14414 z m 3.57801,2.60595 c 0.46749,0.42222 0.91467,0.8654 1.34082,1.32682 l -4.9475,4.78045 -8.28919,8.00971 h -1.1539 v -1.51501 c 1.75784,-1.69567 4.0172,-3.8768 7.03068,-6.78931 3.16908,-3.06291 4.50131,-4.348 6.01909,-5.81266 z m 2.90838,3.25652 c 0.34666,0.49546 0.70028,1.05106 1.03602,1.62405 -1.13432,1.09625 -1.9928,1.92583 -4.23169,4.08848 -2.30454,2.22608 -3.71954,3.59606 -5.32345,5.14793 h -2.72625 c 1.77848,-1.71582 3.38218,-3.26231 6.48373,-6.2593 z m 2.2271,3.91232 c 0.12575,0.28049 0.23822,0.54988 0.33029,0.79789 0.13879,0.37384 0.26765,0.75258 0.38658,1.13338 -1.76441,1.70562 -3.47283,3.35809 -5.18752,5.01687 h -2.72094 c 1.26148,-1.21833 2.387,-2.30483 3.9083,-3.77498 z m 1.39551,4.71807 c 0.0986,0.56746 0.17047,1.12347 0.21188,1.65762 l 0.0441,0.57245 h -2.56535 c 0.45107,-0.43544 0.82708,-0.79765 1.35357,-1.30637 z" /></g></svg>
