<?xml version="1.0" encoding="UTF-8" standalone="no"?>
<!-- Created with Inkscape (http://www.inkscape.org/) -->

<svg
   width="25.821045mm"
   height="25.671494mm"
   viewBox="0 0 25.821045 25.671494"
   version="1.1"
   id="svg5"
   xml:space="preserve"
   xmlns:inkscape="http://www.inkscape.org/namespaces/inkscape"
   xmlns:sodipodi="http://sodipodi.sourceforge.net/DTD/sodipodi-0.dtd"
   xmlns="http://www.w3.org/2000/svg"
   xmlns:svg="http://www.w3.org/2000/svg"><sodipodi:namedview
     id="namedview7"
     pagecolor="#ffffff"
     bordercolor="#666666"
     borderopacity="1.0"
     inkscape:showpageshadow="2"
     inkscape:pageopacity="0.0"
     inkscape:pagecheckerboard="0"
     inkscape:deskcolor="#d1d1d1"
     inkscape:document-units="mm"
     showgrid="false" /><defs
     id="defs2" /><g
     inkscape:label="Layer 1"
     inkscape:groupmode="layer"
     id="layer1"
     transform="translate(-130.78633,-133.92051)"><path
       id="path9403"
       style="fill:#ffffff;fill-opacity:1;stroke-width:0.167911"
       d="m 137.47275,133.92051 c -0.11205,2.71769 -1.75255,5.38404 -5.02554,6.40271 -0.55419,0.17248 -1.11077,0.26822 -1.66088,0.29817 v 16.69201 c 0.72986,-0.90535 1.96878,-0.64957 2.5213,0.87281 0.75077,2.06869 2.35127,1.78918 2.35127,-0.41083 0,-1.29732 0.0776,-1.40742 1.21078,-1.71049 0.9336,-0.24969 1.09788,-0.15133 1.77302,1.05937 0.98156,1.76019 2.59239,1.02703 2.12545,-0.96738 -0.28914,-1.23498 -0.22877,-1.4308 0.5824,-1.88671 0.93259,-0.52415 1.18991,-0.4665 2.11615,0.47387 0.92708,0.94126 1.08621,0.98558 1.7787,0.49248 0.60953,-0.434 0.6249,-0.90554 0.0641,-2.01228 -0.47944,-0.94614 -0.42607,-1.18136 0.43305,-1.90428 0.67933,-0.57162 0.91505,-0.55355 1.95957,0.14986 1.77895,1.19803 2.85663,-0.022 1.55752,-1.7632 -0.79497,-1.06551 -0.79464,-1.06319 -0.23254,-1.8743 0.5836,-0.84213 0.88904,-0.90818 2.13889,-0.45992 2.01469,0.72254 2.792,-0.5005 1.23765,-1.94717 -1.06715,-0.99323 -1.11182,-1.14619 -0.61805,-2.11408 0.42962,-0.84211 0.59364,-0.90261 1.84536,-0.68213 1.22165,0.2152 1.42869,0.15079 1.6614,-0.51676 0.32321,-0.92714 0.24064,-1.0861 -0.86971,-1.67329 -1.87394,-0.99099 -1.44935,-2.98948 0.6351,-2.98948 1.16784,0 1.39138,-0.15199 1.52032,-1.03456 0.11326,-0.77523 -0.0635,-0.95951 -1.20509,-1.25677 -1.18186,-0.30774 -1.37742,-0.41626 -1.40664,-1.23765 h -4.36407 c -0.006,2.36051 -0.37399,4.64504 -1.14205,5.4131 -0.56695,0.56694 -1.42993,0.72992 -2.14871,0.40566 -1.02015,-0.46021 -5.03385,-2.82191 -5.27978,-3.10678 -0.18984,-0.21989 -0.27669,-1.42341 -0.27595,-2.71198 z m 0.63148,7.30808 c 0.57538,0.0164 1.34709,0.45881 3.10214,1.46813 2.82598,1.62517 3.35221,2.10956 3.35121,3.08405 -0.002,1.41037 -3.33118,4.06244 -6.95461,5.53971 -3.84824,1.56891 -4.63072,0.89958 -4.63072,-3.95997 0,-3.46452 0.0112,-3.49484 1.56941,-4.18165 0.66052,-0.29114 1.65274,-0.86788 2.20503,-1.28209 0.58114,-0.43586 0.91003,-0.68096 1.35754,-0.66818 z" /></g></svg>
